HIERARCHY
ROOT hip
{
  OFFSET 0 0 0
  CHANNELS 6 Xposition Yposition Zposition Zrotation Yrotation Xrotation
  JOINT abdomen
  {
    OFFSET 0 20.6881 -0.73152
    CHANNELS 3 Zrotation Xrotation Yrotation
    JOINT chest
    {
      OFFSET 0 11.7043 -0.48768
      CHANNELS 3 Zrotation Xrotation Yrotation
      JOINT neck
      {
        OFFSET 0 22.1894 -2.19456
        CHANNELS 3 Zrotation Xrotation Yrotation
        JOINT head
        {
          OFFSET -0.24384 7.07133 1.2192
          CHANNELS 3 Zrotation Xrotation Yrotation
          JOINT leftEye
          {
            OFFSET 4.14528 8.04674 8.04672
            CHANNELS 3 Zrotation Xrotation Yrotation
            End Site
            {
              OFFSET 1 0 0
            }
          }
          JOINT rightEye
          {
            OFFSET -3.6576 8.04674 8.04672
            CHANNELS 3 Zrotation Xrotation Yrotation
            End Site
            {
              OFFSET 1 0 0
            }
          }
        }
      }
      JOINT rCollar
      {
        OFFSET -2.68224 19.2634 -4.8768
        CHANNELS 3 Zrotation Xrotation Yrotation
        JOINT rShldr
        {
          OFFSET -8.77824 -1.95073 1.46304
          CHANNELS 3 Zrotation Xrotation Yrotation
          JOINT rForeArm
          {
            OFFSET -28.1742 -1.7115 0.48768
            CHANNELS 3 Zrotation Xrotation Yrotation
            JOINT rHand
            {
              OFFSET -22.5879 0.773209 7.07136
              CHANNELS 3 Zrotation Xrotation Yrotation
              JOINT rThumb1
              {
                OFFSET -1.2192 -0.487915 3.41376
                CHANNELS 3 Zrotation Xrotation Yrotation
                JOINT rThumb2
                {
                  OFFSET -3.37035 -0.52449 3.41376
                  CHANNELS 3 Zrotation Xrotation Yrotation
                  End Site
                  {
                    OFFSET -1.78271 -1.18214 1.43049
                  }
                }
              }
              JOINT rIndex1
              {
                OFFSET -7.75947 0.938293 5.60832
                CHANNELS 3 Zrotation Xrotation Yrotation
                JOINT rIndex2
                {
                  OFFSET -2.54057 -0.884171 1.56538
                  CHANNELS 3 Zrotation Xrotation Yrotation
                  End Site
                  {
                    OFFSET -1.62519 -0.234802 1.16502
                  }
                }
              }
              JOINT rMid1
              {
                OFFSET -8.24714 1.18213 3.41376
                CHANNELS 3 Zrotation Xrotation Yrotation
                JOINT rMid2
                {
                  OFFSET -3.10165 -0.590103 1.0647
                  CHANNELS 3 Zrotation Xrotation Yrotation
                  End Site
                  {
                    OFFSET -2.48547 -0.328903 0.83742
                  }
                }
              }
              JOINT rRing1
              {
                OFFSET -8.82822 0.546677 1.51678
                CHANNELS 3 Zrotation Xrotation Yrotation
                JOINT rRing2
                {
                  OFFSET -2.60934 -0.819778 -0.0198488
                  CHANNELS 3 Zrotation Xrotation Yrotation
                  End Site
                  {
                    OFFSET -2.33842 -0.294052 0.168128
                  }
                }
              }
              JOINT rPinky1
              {
                OFFSET -8.27202 -0.0477905 -0.4584
                CHANNELS 3 Zrotation Xrotation Yrotation
                JOINT rPinky2
                {
                  OFFSET -1.82734 -0.647385 -0.700984
                  CHANNELS 3 Zrotation Xrotation Yrotation
                  End Site
                  {
                    OFFSET -1.69225 -0.51767 -0.607171
                  }
                }
              }
            }
          }
        }
      }
      JOINT lCollar
      {
        OFFSET 2.68224 19.2634 -4.8768
        CHANNELS 3 Zrotation Xrotation Yrotation
        JOINT lShldr
        {
          OFFSET 8.77824 -1.95073 1.46304
          CHANNELS 3 Zrotation Xrotation Yrotation
          JOINT lForeArm
          {
            OFFSET 28.1742 -1.7115 0.48768
            CHANNELS 3 Zrotation Xrotation Yrotation
            JOINT lHand
            {
              OFFSET 22.5879 0.773209 7.07136
              CHANNELS 3 Zrotation Xrotation Yrotation
              JOINT lThumb1
              {
                OFFSET 1.2192 -0.487915 3.41376
                CHANNELS 3 Zrotation Xrotation Yrotation
                JOINT lThumb2
                {
                  OFFSET 3.37035 -0.52449 3.41376
                  CHANNELS 3 Zrotation Xrotation Yrotation
                  End Site
                  {
                    OFFSET 1.78271 -1.18214 1.43049
                  }
                }
              }
              JOINT lIndex1
              {
                OFFSET 7.75947 0.938293 5.60832
                CHANNELS 3 Zrotation Xrotation Yrotation
                JOINT lIndex2
                {
                  OFFSET 2.54057 -0.884171 1.56538
                  CHANNELS 3 Zrotation Xrotation Yrotation
                  End Site
                  {
                    OFFSET 1.62519 -0.234802 1.16502
                  }
                }
              }
              JOINT lMid1
              {
                OFFSET 8.24714 1.18213 3.41376
                CHANNELS 3 Zrotation Xrotation Yrotation
                JOINT lMid2
                {
                  OFFSET 3.10165 -0.590103 1.0647
                  CHANNELS 3 Zrotation Xrotation Yrotation
                  End Site
                  {
                    OFFSET 2.48547 -0.328903 0.83742
                  }
                }
              }
              JOINT lRing1
              {
                OFFSET 8.82822 0.546677 1.51678
                CHANNELS 3 Zrotation Xrotation Yrotation
                JOINT lRing2
                {
                  OFFSET 2.60934 -0.819778 -0.0198488
                  CHANNELS 3 Zrotation Xrotation Yrotation
                  End Site
                  {
                    OFFSET 2.33842 -0.294052 0.168128
                  }
                }
              }
              JOINT lPinky1
              {
                OFFSET 8.27202 -0.0477905 -0.4584
                CHANNELS 3 Zrotation Xrotation Yrotation
                JOINT lPinky2
                {
                  OFFSET 1.82734 -0.647385 -0.700984
                  CHANNELS 3 Zrotation Xrotation Yrotation
                  End Site
                  {
                    OFFSET 1.69225 -0.51767 -0.607171
                  }
                }
              }
            }
          }
        }
      }
    }
  }
  JOINT rButtock
  {
    OFFSET -8.77824 4.35084 1.2192
    CHANNELS 3 Zrotation Xrotation Yrotation
    JOINT rThigh
    {
      OFFSET 0 -1.70687 -2.19456
      CHANNELS 3 Zrotation Xrotation Yrotation
      JOINT rShin
      {
        OFFSET 0 -36.8199 0.73152
        CHANNELS 3 Zrotation Xrotation Yrotation
        JOINT rFoot
        {
          OFFSET 0.73152 -45.1104 -5.12064
          CHANNELS 3 Zrotation Xrotation Yrotation
          End Site
          {
            OFFSET -1.1221 -3.69964 12.103
          }
        }
      }
    }
  }
  JOINT lButtock
  {
    OFFSET 8.77824 4.35084 1.2192
    CHANNELS 3 Zrotation Xrotation Yrotation
    JOINT lThigh
    {
      OFFSET 0 -1.70687 -2.19456
      CHANNELS 3 Zrotation Xrotation Yrotation
      JOINT lShin
      {
        OFFSET 0 -36.8199 0.73152
        CHANNELS 3 Zrotation Xrotation Yrotation
        JOINT lFoot
        {
          OFFSET -0.73152 -45.1104 -5.12064
          CHANNELS 3 Zrotation Xrotation Yrotation
          End Site
          {
            OFFSET 1.1221 -3.69964 12.103
          }
        }
      }
    }
  }
}
MOTION
Frames:	5
Frame Time:	0.03333
-63.5919 68.14320000000001 -29.027199999999997 159.059281 51.101559 173.266306 -36.547126 50.132009 -87.651912 60.300696 -45.055628 102.231295 -29.129365 77.432841 122.314522 -43.300374 -22.657577 -11.28891 -48.8978 25.211118 -52.382348 -45.717649 27.829672 -60.884126 100.453715 17.412263 8.266884 27.266827 3.28107 -2.40914 -154.420591 -4.287501 37.772568 157.400288 -30.876781 142.724275 -170.598787 -26.466496 96.460137 -84.526117 19.41482 -1.478196 -54.084642 -74.979134 -157.056994 0.543245 1.553476 -16.864731 26.410809 59.723606 13.052173 -16.302098 52.340487 17.152562 88.795249 72.995003 -10.94875 127.073629 24.575446 -124.187292 -35.213911 -33.75519 -100.101481 -70.168492 -47.368719 -81.70925 68.011974 32.895711 3.549798 126.83684 -18.779821 -169.241365 -148.123703 24.67514 41.328066 -19.542756 8.749593 27.802901 -14.078545 58.336788 -5.938335 -7.523416 13.768737 6.685206 -67.937695 59.515573 42.589673 -8.008144 40.949636 -13.429211 -76.383977 63.846856 34.819908 7.872947 28.850722 20.225752 111.615595 -13.585418 158.244518 172.134421 -47.618715 -160.052757 21.125839 -27.955446 49.020218 14.563482 -44.515177 20.181386 -106.695128 27.28883 -43.1884 160.839506 -7.861378 -89.06186 -89.292292 -23.940296 178.750175 -86.610028 13.023001 -92.323528 -157.239332 74.136458 -11.053854 129.644328 23.519239 130.699925 79.77034 -14.768801 50.87804 136.418585 3.323254 70.739072
-63.4927 65.0749 -29.336299999999998 160.871671 50.664321 174.342669 -46.608751 49.104805 137.39297 -26.969927 59.093413 -124.674872 -90.101892 76.254106 -168.592856 -56.012422 -17.020401 -25.510678 -53.092842 24.13175 -46.328757 -124.308777 -29.891109 -53.615322 84.904598 38.572267 13.934095 29.67836 14.569921 5.719862 -10.586785 -46.24583 96.312513 5.834242 4.601069 5.663046 10.44689 1.473148 -6.786793 17.859568 23.071541 0.848091 -81.022306 -67.198819 173.56831 -2.763356 -11.99854 -21.161031 -107.147422 -55.764553 165.164235 -159.294763 -1.729746 132.040683 -81.463505 10.662436 -161.528707 100.665588 82.191649 -26.053997 26.474867 -36.52242 -42.439729 14.699299 80.260685 35.815091 64.809026 -43.190607 21.796718 -128.125276 64.217004 97.282559 -135.920104 74.030162 -77.287805 -162.598404 59.489796 -141.512663 169.991083 -77.625017 -76.207062 30.496367 -51.83108 -3.071818 -65.572936 57.79478 41.377249 164.000035 -57.568868 -97.554689 -20.393678 -55.407385 70.033988 165.520156 1.283469 -99.147913 -21.611795 5.491038 8.913278 -100.053967 71.573518 75.564912 150.74687 42.119456 119.342971 154.143619 14.370452 134.692905 -15.605636 6.513459 22.707481 80.804203 -70.520569 -180.0 85.955387 -19.901081 -56.479003 -78.908416 -18.099151 -80.384968 -20.074832 7.993365 -21.765632 -2.317401 -42.663778 -1.604816 -27.753185 74.105266 -68.961656 114.91322 -25.822805 119.231559
-63.455099999999995 60.7885 -29.5508 162.374975 50.286684 175.00263 -45.825915 55.03035 -22.617531 9.513863 -64.692554 31.843977 -101.42586 56.059369 14.123519 72.71027 27.28878 130.957232 -53.232252 19.372419 -37.618858 -62.873914 26.856415 -42.668745 72.034806 44.050134 18.316601 -131.341067 36.8936 164.045875 89.54213 -33.563819 -111.871008 -164.999806 70.618304 147.121782 -8.634226 18.645102 1.275061 -75.681991 -3.083395 107.615734 53.128128 3.180568 -22.048997 169.459684 -79.260505 89.437088 -98.331006 -64.652791 169.969822 -141.071129 15.938609 122.771231 -30.765062 -49.25777 -112.909921 -146.670535 -18.228543 129.813682 -19.031864 -42.978791 -83.925414 41.674619 73.161159 7.373574 57.014517 45.499655 -4.145122 -59.152174 -13.577369 -30.588678 -1.155657 -30.155585 -111.993126 -35.103154 -23.658634 9.42299 5.421312 67.249477 -28.519751 8.090619 27.522753 -11.167504 -61.586192 50.282349 42.037488 158.634026 -59.45803 -101.400061 -69.719547 29.203818 32.843445 74.431959 65.333088 -7.620703 134.251243 0.097548 176.963589 12.754011 -15.050752 -29.442664 138.43657 29.275308 121.669024 127.847226 -26.933929 119.757226 20.912096 32.611141 46.483598 -80.075567 -71.489968 -5.451009 82.183938 49.537448 -83.470631 159.357612 39.425186 48.468338 -105.814797 63.146971 -40.002326 108.665098 3.564365 88.796902 78.767958 29.579713 7.543468 151.085897 31.481122 24.999317
-63.4545 57.828900000000004 -29.677300000000002 163.936707 49.765263 175.641735 -49.808066 55.874245 43.284729 -56.62535 -34.206819 -50.597213 -78.611741 64.59712 72.529847 46.044065 -45.797421 84.181458 -50.25431 13.098299 -27.508776 -63.536164 23.291269 -36.816971 75.339241 23.519895 8.510198 31.262578 26.61805 4.138801 -157.252609 34.969573 26.660773 151.533261 -28.138608 139.111298 -3.86087 13.425604 0.828012 -97.585956 -47.333801 134.018282 52.405332 -3.701763 -23.965459 -147.449213 -73.64655 126.878174 -91.470982 -63.977221 171.737715 -47.393557 45.736082 57.439368 63.6088 7.293085 -20.086223 -21.468203 -2.210921 4.540575 30.827202 -37.908511 -39.025235 -127.89828 -37.598891 -140.715301 114.678194 -78.806034 90.880198 -70.227671 50.432894 68.216164 174.567939 -4.72268 -32.541824 -156.847376 33.203151 -132.88736 11.656362 67.853976 -30.657044 28.651387 31.45322 -30.282463 -48.07925 10.98237 46.921536 145.517118 -77.605948 -131.352643 79.399518 -38.025466 168.377032 -112.235347 -57.506795 -5.338018 123.336411 55.425397 -143.565212 120.609338 0.008098 -118.979101 66.804534 -29.618332 87.07759 149.821397 37.496067 150.435353 45.305294 55.087158 51.378478 -106.487436 -51.049024 -11.277572 94.494049 62.72278 175.049364 95.050169 1.99807 62.635042 -8.78768 6.550326 -15.535029 -20.618564 -47.111878 -15.692869 -16.204232 74.047173 -10.069117 -148.393325 58.501944 -67.81992
-63.4247 57.66289999999999 -29.6651 165.549838 49.355655 176.354195 -39.47656 55.374085 -51.746157 48.868711 -46.616181 83.534489 -78.664033 75.367465 139.904546 -45.813763 -41.378785 -18.516553 -46.778951 8.215977 -18.856139 -64.163686 22.167564 -34.708942 72.415366 23.692859 8.493129 29.219948 40.522157 8.155049 48.877586 -10.722267 138.262322 -5.615861 77.554105 -7.104527 -14.029675 23.942336 7.497406 -98.163402 -39.318451 120.197021 -20.184548 -81.25607 -117.492644 -146.677637 84.811081 116.425665 -88.696063 -60.368227 172.173384 -43.901279 48.133219 56.980275 -85.195411 0.071855 -153.787032 -138.258317 6.269421 -169.211154 -89.002855 38.585343 -137.278762 176.694802 52.554026 -116.905316 -160.601561 -3.456056 -169.07093 -144.228309 1.324485 -174.42418 -170.09864 30.549452 -38.416113 -153.881667 45.375227 -141.475237 -105.856187 -76.831333 -2.17721 8.884056 -59.658161 2.594276 -57.093123 86.123864 30.43893 147.396983 -19.547007 -92.858857 -52.516617 -24.50861 42.007318 -113.989599 21.349831 -94.549306 20.995595 39.676249 -25.456408 -79.358776 -2.925468 -0.699516 68.376486 -29.526377 90.743866 0.24613 -18.261809 -2.271018 -137.024984 48.911436 -51.029031 -167.760357 -9.565582 52.546801 90.038587 46.847623 -171.884778 -150.594189 25.823069 -29.179019 14.135496 3.220338 -0.0 -55.761506 -37.939982 -67.293322 -68.349068 57.233309 113.797167 23.208346 -77.994788 32.716665
